<svg width="42" height="42" xmlns="http://www.w3.org/2000/svg" xmlns:xlink="http://www.w3.org/1999/xlink" xml:space="preserve" overflow="hidden"><defs><clipPath id="clip0"><rect x="601" y="504" width="42" height="42"/></clipPath></defs><g clip-path="url(#clip0)" transform="translate(-601 -504)"><path d="M636.875 540.575 628.125 532.263 636.875 523.95 636.875 540.575ZM608.525 541.625 617.188 533.444 617.8 532.875C620.162 530.644 623.881 530.644 626.244 532.875L626.856 533.444 635.475 541.625 608.525 541.625ZM607.125 523.906 615.875 532.219 607.125 540.531 607.125 523.906ZM613.25 512.75 630.75 512.75 630.75 527.319 626.812 531.081C623.969 528.894 620.031 528.894 617.188 531.081L613.25 527.319 613.25 512.75ZM633.375 513.931 633.375 510.125 627.25 510.125 622 505.75 616.75 510.125 610.625 510.125 610.625 513.975 604.5 519.794 604.5 544.25 639.5 544.25 639.5 519.794 633.375 513.931Z"/><path d="M622 522.506C621.213 522.506 620.6 521.85 620.6 521.106 620.6 520.319 621.256 519.706 622 519.706 622.787 519.706 623.4 520.319 623.4 521.106 623.4 521.894 622.787 522.506 622 522.506ZM622 526.75C623.006 526.75 623.969 526.487 624.844 526.05 625.194 525.831 625.325 525.394 625.15 525.044 624.931 524.694 624.494 524.562 624.144 524.737 623.487 525.088 622.744 525.263 622 525.263 619.681 525.263 617.756 523.338 617.8 521.019 617.8 518.7 619.725 516.775 622.044 516.775 624.362 516.775 626.287 518.656 626.287 521.019L626.287 522.419C625.5 522.419 624.888 521.806 624.888 521.019 624.888 519.619 623.925 518.438 622.569 518.175 621.213 517.912 619.856 518.656 619.375 519.925 618.894 521.194 619.375 522.681 620.556 523.381 621.737 524.081 623.269 523.862 624.188 522.812 624.713 523.425 625.5 523.775 626.331 523.775 627.119 523.775 627.731 523.162 627.731 522.375L627.731 520.975C627.731 517.825 625.194 515.287 622.044 515.287 618.894 515.287 616.356 517.825 616.356 520.975 616.312 524.169 618.85 526.706 622 526.75Z"/></g></svg>